<?xml version="1.0" encoding="UTF-8" standalone="no"?>
<svg
        version="1.1"
        id="Layer_1"
        x="0px"
        y="0px"
        width="1220.8038"
        viewBox="64 128 1220.804 1080.4295"
        xml:space="preserve"
        height="1080.4293"
        xmlns="http://www.w3.org/2000/svg">
    <defs id="defs49"/>
    <path
            fill="#844bf8"
            opacity="1"
            stroke="none"
            d="m 139.85129,818.90827 c 2.91991,9.3541 4.88281,19.5509 8.84294,28.9017 10.01175,23.6402 28.87992,37.4124 53.32868,43.2008 11.03283,2.6121 22.59952,4.0912 33.93194,4.1375 84.16364,0.3436 168.32924,0.1978 252.49422,0.2057 2.14141,2e-4 4.28289,10e-5 7.3048,10e-5 -0.4837,4.8004 -0.94042,9.1341 -1.35406,13.4723 -2.06482,21.6582 -0.10895,42.6288 12.55847,61.1142 9.56664,13.9607 23.2799,22.5631 39.40088,27.3328 15.71898,4.65053 31.8327,6.13683 48.18413,6.09583 44.99879,-0.1128 89.99818,-0.01 134.9972,-0.057 15.99505,-0.018 31.77713,-1.705 47.05004,-6.81373 30.2696,-10.1251 46.8719,-31.0245 50.2999,-62.8108 1.2242,-11.3524 1.0054,-22.4912 -1.0027,-33.67 -0.2268,-1.263 -0.031,-2.6018 -0.031,-4.6637 2.3975,0 4.4994,10e-5 6.6014,0 98.498,-0.01 196.99627,0.105 295.49377,-0.1279 19.1603,-0.045 37.6845,-4.172 54.2742,-14.273 20.1373,-12.2611 30.5988,-31.1947 35.4682,-53.6805 0.5247,-2.4231 0.9195,-4.8743 1.6372,-7.5751 0.3079,25.734 1.1685,51.7633 0.1279,77.7163 -0.7615,18.9938 -6.4304,37.1659 -18.161,52.6134 -12.1159,15.9546 -28.8969,24.9921 -48.1753,29.1348 -8.7799,1.8866 -17.9043,3.0175 -26.8755,3.0368 -97.3267,0.2104 -194.65388,0.1315 -291.98098,0.1315 -1.9693,0 -3.9387,0 -6.5345,0 0,6.3033 0.2284,12.2506 -0.041,18.17523 -0.9952,21.9083 -7.393,41.6971 -23.8231,57.1126 -11.4332,10.7272 -25.5013,16.3152 -40.5964,19.7413 -13.0104,2.953 -26.18161,3.0435 -39.41977,3.0137 -48.16333,-0.1085 -96.33062,0.3052 -144.48883,-0.2056 -20.6734,-0.2194 -40.44604,-5.7048 -57.15936,-18.3068 -12.16827,-9.1752 -20.18811,-21.7228 -24.62823,-36.6874 -4.12299,-13.8956 -3.84485,-28.00113 -3.85212,-42.84303 -2.22601,0 -4.15429,0 -6.08252,0 -86.16113,0 -172.32403,0.3011 -258.48217,-0.2018 -22.89133,-0.1336 -44.23932,-6.5926 -61.87213,-22.6136 -13.40876,-12.183 -20.48276,-27.4962 -24.62623,-44.7295 -4.45013,-18.5088 -2.54785,-37.2606 -2.87875,-55.9253 -0.23328,-13.1607 -0.002,-26.3294 0.0694,-39.9519 z"
            id="path3"/>
    <path
            fill="#a87efd"
            opacity="1"
            stroke="none"
            d="m 139.89895,818.45087 c -0.38886,-7.2702 -1.11286,-14.5402 -1.1168,-21.8106 -0.069,-127.1354 -0.30542,-254.27188 0.1793,-381.40548 0.0902,-23.65259 7.72628,-45.54968 25.17392,-62.69715 13.15774,-12.93133 29.54773,-19.85308 47.61057,-22.03338 12.94492,-1.5625 26.0849,-2.08423 39.13821,-2.08917 292.92806,-0.11042 585.85607,-0.15937 878.78405,0.0624 22.4802,0.017 43.9061,5.77154 61.7543,20.34729 13.0581,10.664 20.8794,25.03936 25.2496,41.21051 3.0271,11.20147 4.1436,22.63433 4.1317,34.28924 -0.118,115.97138 -0.035,231.94299 -0.1154,347.91449 -0.011,15.44125 -0.6152,30.88205 -1.282,47.02205 -0.7924,3.1373 -1.1872,5.5885 -1.7119,8.0116 -4.8694,22.4858 -15.3309,41.4194 -35.4682,53.6805 -16.5897,10.101 -35.1139,14.2275 -54.2742,14.273 -98.4975,0.2329 -196.99577,0.1199 -295.49377,0.1279 -2.10201,10e-5 -4.2039,0 -6.6014,0 0,2.0619 -0.196,3.4007 0.031,4.6637 2.0081,11.1788 2.2269,22.3176 1.0027,33.67 -3.428,31.7863 -20.03029,52.6857 -50.29989,62.8108 -15.2729,5.10873 -31.05498,6.79533 -47.05003,6.81373 -44.99903,0.052 -89.99842,-0.056 -134.9972,0.057 -16.35145,0.041 -32.46515,-1.4453 -48.18414,-6.09583 -16.12097,-4.7697 -29.83423,-13.3721 -39.40088,-27.3328 -12.66742,-18.4854 -14.62329,-39.456 -12.55847,-61.1142 0.41363,-4.3382 0.87036,-8.6719 1.35406,-13.4723 -3.02192,0 -5.1634,1e-4 -7.3048,-10e-5 -84.16499,-0.01 -168.33057,0.1379 -252.49421,-0.2057 -11.33243,-0.046 -22.89912,-1.5254 -33.93194,-4.1375 -24.44876,-5.7884 -43.31694,-19.5606 -53.32869,-43.2008 -3.96014,-9.3508 -5.92302,-19.5476 -8.79528,-29.3591"
            id="path2"/>

    <path
            fill="#f90200"
            opacity="1"
            stroke="none"
            d="m 934.20792,781.14482 c -2.1941,-7.78192 -4.15709,-15.573 -6.11999,-23.36407 5.3966,6.28583 7.2524,13.82844 7.4715,22.21937 -0.3643,0.71338 -0.7586,0.86486 -1.35151,1.1447 z"
            id="path16"/>
    <path
            fill="#f9d801"
            opacity="1"
            stroke="none"
            d="m 914.91223,786.70477 c -7.0743,0.8896 -14.5004,2.08 -22.0021,2.5355 1.2682,-9.05535 0.64079,-17.61901 -2.7988,-25.71373 0.248,8.74127 0.6884,17.37829 0.9295,25.87863 -11.77421,-1.3749 -23.9104,-2.1067 -35.4682,-4.51877 -8.56691,-1.7879 -16.5039,-6.62228 -20.6117,-15.56076 3.69329,-4.11969 8.6927,-6.95926 10.5054,-11.3013 4.4597,-10.68201 5.2184,-22.08185 0.6762,-33.08618 -3.1614,-7.65918 -6.604,-15.29993 -10.8565,-22.38788 -6.1139,-10.19098 -13.4817,-19.48901 -24.76321,-24.60925 -6.23839,-2.83142 -12.5832,-3.53609 -19.5585,-1.04396 -3.7023,-4.42615 -7.1973,-9.04863 -10.473,-13.3734 -0.7181,-0.94818 -0.9422,-2.27051 -1.06109,-3.35529 11.3605,7.85425 24.1866,10.66394 37.12169,10.914 21.5263,0.41602 39.936,-7.68963 53.9702,-24.43475 6.30681,-7.52502 10.27051,-16.1447 11.2698,-26.32072 11.1233,-4.45423 22.25511,-8.8694 33.17361,-12.85542 0.66889,1.17645 1.3449,2.10064 1.61889,3.01702 2.32321,7.77039 4.77521,15.51172 6.7763,23.36676 2.65181,10.409 4.89361,20.92182 7.3978,31.36939 0.6333,2.64227 2.02141,5.23989 2.8317,7.83974 9.2926,10.28333 10.2456,23.28739 11.9651,36.13316 1.5338,11.4588 1.7051,22.87225 -2.4648,33.99475 -0.4622,1.23285 0.3841,3.17322 1.0543,4.5802 6.8288,14.33697 4.3923,23.34601 -8.6097,32.32629 -0.5594,-8.31585 -2.0506,-16.03222 -7.4472,-22.31805 1.9629,7.79107 4.1681,15.57043 6.1311,23.36151 -6.0493,1.92651 -13.0609,4.10325 -19.3279,5.51311 0.8008,-8.87752 -0.6305,-16.75133 -4.581,-23.99065 0.1589,4.83533 0.73971,9.58606 1.7114,14.25543 0.6905,3.31836 1.9083,6.52698 2.89071,9.78462 z"
            id="path6"/>
    <path
            fill="#f9d801"
            opacity="1"
            stroke="none"
            d="m 728.18436,589.47429 c -11.21039,-12.64636 -19.25483,-27.15924 -19.76582,-44.34674 -0.35827,-12.04956 1.28211,-24.17444 2.29218,-36.24377 0.85248,-10.1861 3.90815,-19.56598 11.37061,-26.63819 -7.29688,-14.83551 -6.93329,-30.20782 -2.90436,-45.0542 3.49561,-12.88092 8.63696,-25.55188 14.77887,-37.42145 8.74701,-16.90399 22.80659,-18.85797 37.37778,-6.54907 9.308,7.86292 14.99711,18.19879 19.25881,29.32135 3.2026,8.35828 5.7343,16.97357 8.71939,25.93927 3.83041,-0.29516 7.93821,-0.84552 12.051,-0.8858 13.6329,-0.13355 27.2699,-0.22266 40.8998,0.003 3.0501,0.0506 4.3487,-0.63361 5.2619,-3.57813 7.2836,-23.48517 22.5639,-41.24603 41.1773,-56.45782 8.2958,-6.77967 17.5107,-5.49524 23.9219,3.14667 6.0551,8.16216 9.2564,17.59973 11.28401,27.47442 3.2433,15.79578 3.97939,31.71216 1.6122,47.65479 -0.6458,4.34875 -1.9576,9.00543 -4.3706,12.56811 -2.3201,3.42584 -1.5464,5.52509 -0.2463,8.79444 6.0296,15.16278 7.6641,30.75701 4.4742,46.95501 -3.7236,18.90875 -14.8586,33.5751 -27.072,48.28994 -16.225,3.28369 -31.9242,6.23081 -47.5712,9.10313 -33.5974,6.16736 -67.514,6.78107 -101.4523,4.63672 -8.6194,-0.54462 -17.04208,-4.11444 -25.5729,-6.22211 -1.69696,-0.41925 -3.78375,-0.25177 -5.52447,-0.49384"
            id="path4"/>
    <path
            fill="#a3a3a3"
            opacity="1"
            stroke="none"
            d="m 508.19649,680.24028 c -9.25635,4.77973 -18.5291,10.13105 -28.14446,14.02381 -37.26801,15.08819 -74.57813,30.10394 -112.20606,44.26019 -26.13964,9.8341 -52.91711,18.11328 -81.39814,16.68005 -19.03557,-0.95788 -32.24403,-8.22095 -38.49043,-24.87207 -5.637,-15.02673 -0.84751,-28.08685 9.01236,-39.68298 12.49261,-14.69251 28.59527,-24.57007 45.44011,-33.39752 29.38184,-15.39728 60.85907,-25.76233 91.52296,-38.07508 15.10931,-6.06701 30.24854,-12.10174 45.60033,-17.50909 11.24518,-3.96082 23.3012,-7.18073 35.18407,-10.19678 -2.5882,21.95452 0.14009,42.93268 11.56062,61.50287 6.00421,9.76306 14.64478,18.28436 21.91864,27.2666 z"
            id="path5"/>

    <path
            fill="#464546"
            opacity="1"
            stroke="none"
            d="m 544.76124,513.53155 c 12.06153,-2.8451 24.33888,-3.66651 36.75625,-2.19465 41.1856,4.88178 76.5114,38.74921 81.99261,79.89569 5.18164,38.89813 -7.99286,70.62927 -40.46052,93.74072 -2.87756,-1.36719 -5.57586,-2.828 -7.65155,-4.40362 -16.44067,-12.48047 -26.95856,-29.66638 -36.67212,-47.31183 -14.10895,-25.63 -22.89873,-53.29065 -28.85132,-81.78528 -2.59076,-12.4021 -3.52314,-25.32995 -5.11335,-37.94103 z"
            id="path7"/>
    <path
            fill="#464546"
            opacity="1"
            stroke="none"
            d="m 508.17263,680.23015 c -7.57148,-9.15399 -15.89057,-17.49341 -21.89478,-27.25647 -11.42053,-18.57019 -14.59123,-39.24323 -11.62627,-61.25269 3.55145,-18.91064 10.92285,-35.55364 23.70916,-49.64502 10.01899,-11.0415 21.88831,-19.30999 36.11488,-24.36767 0.34106,2.21094 0.26622,4.0426 0.30468,5.87189 0.59667,28.40362 9.57012,55.07574 19.26544,81.0993 12.37055,33.20441 32.34655,62.5069 58.63135,86.76483 -34.00117,16.11286 -67.06446,13.43347 -98.40565,-7.2171 -1.93426,-1.27441 -3.86749,-2.55017 -6.09881,-3.99707 z"
            id="path8"/>

    <path
            fill="#f9d801"
            opacity="1"
            stroke="none"
            d="m 761.31462,788.31527 c -15.24569,0.3599 -30.85697,0.2007 -45.54262,-5.36377 1.68413,-8.24139 3.92376,-16.47825 5.85088,-24.85496 -4.1895,7.93439 -7.01887,15.7358 -7.0005,24.18569 -16.28339,-7.34582 -19.38968,-25.35353 -6.35788,-37.45833 2.2127,-2.0553 2.25951,-3.56158 1.70312,-6.33423 -4.14862,-20.67431 -2.57526,-40.53699 9.93066,-58.75555 2.23516,1.2464 3.85712,2.66589 5.6258,3.86969 12.92279,8.79522 25.14045,18.94415 41.18945,22.06506 0.23,13.08673 4.47509,24.75031 9.67659,36.12824 5.8698,12.83959 14.5679,22.58654 28.9706,25.96429 2.41291,0.56586 5.22731,1.3125 7.6081,2.01532 -11.0313,12.31396 -25.8505,17.22875 -41.8082,18.41035 -2.98659,0.2211 -6.58709,0.5373 -9.8431,0.173 0.51581,-8.88123 1.8841,-17.69049 2.6585,-26.13251 -0.60289,-0.0512 -1.2058,-0.10248 -1.80859,-0.15369 -0.4703,5.18286 -1.125,10.35791 -1.3466,15.55139 -0.1507,3.53309 0.3482,7.12733 0.5329,10.67481 m -24.21253,-2.4152 c 0.81678,-4.14877 1.86523,-8.26931 2.37445,-12.45547 0.38349,-3.15228 0.0758,-6.38867 0.0758,-9.58758 -0.40753,-0.0223 -0.81512,-0.0446 -1.22265,-0.0669 -0.51441,7.11634 -1.02881,14.24303 -1.22762,22.12035 z"
            id="path10"/>
    <path
            fill="#f80201"
            opacity="1"
            stroke="none"
            d="m 915.80533,605.91814 c -0.1966,0.38122 -0.4637,1.0437 -0.831,1.56067 -10.939,4.45526 -21.7503,8.44262 -33.2685,12.89892 -20.1664,3.3523 -39.5829,6.56769 -59.2237,9.55713 -1.6225,-0.0521 -3.0208,0.12171 -4.9069,0.25006 -18.0765,0.46527 -35.6661,1.1958 -53.0205,-2.89703 -4.1804,-0.9859 -8.4931,-1.41193 -13.026,-2.32843 -8.69142,-3.22656 -17.51119,-5.83807 -25.92159,-8.83154 -4.93994,-6.6333 -3.59722,-19.99128 2.58338,-26.65888 2.04315,-0.0144 3.82135,0.0759 5.51831,0.49518 8.53082,2.10767 16.9535,5.67749 25.5729,6.22211 33.9383,2.14435 67.8549,1.53064 101.4523,-4.63672 15.647,-2.87232 31.5685,-6.10779 47.5634,-9.1142 5.7934,5.93134 7.6145,13.29206 8.2296,21.52863 0,0.51849 0.037,0.73505 -0.2422,1.15539 -0.3756,0.58942 0.051,0.0632 -0.4795,0.79871 z"
            id="path11"/>
    <path
            fill="#ffa801"
            opacity="1"
            stroke="none"
            d="m 766.76402,705.66999 c -16.0995,-2.76227 -28.31716,-13.27096 -41.23994,-22.06618 -1.76869,-1.2038 -3.65815,-2.38252 -5.63978,-3.85384 -1.50501,-1.22894 -2.33344,-2.7296 -3.682,-3.59636 -16.57472,-10.65253 -17.57966,-37.53344 -4.49774,-51.58679 3.2362,-3.47656 8.84537,-4.8896 13.93222,-6.99568 2.97693,1.38178 5.51064,2.32088 7.60849,3.86366 6.12401,4.50366 12.01898,9.31738 18.05916,13.93707 11.6085,5.4563 17.17599,18.5844 28.10829,24.7938 0.4517,1.15002 0.3594,2.40985 1.0775,3.35803 3.2757,4.32477 6.69011,8.54437 10.38651,13.24231 0.5101,1.12823 0.6885,1.81604 0.8657,2.96124 1.7249,11.45081 -4.6328,17.55133 -13.2555,22.21503 -2.6845,1.45215 -5.4777,3.06646 -8.4399,4.18432 -1.2259,-0.27423 -2.2656,-0.38657 -3.2841,-0.45658 z"
            id="path12"/>
    <path
            fill="#f1d200"
            opacity="1"
            stroke="none"
            d="m 832.67512,756.31516 c 0.1261,-0.34955 0.5103,-0.47508 0.7718,-0.68236 0.10301,0.26542 -0.029,1.14585 -0.18059,1.60522 -0.17271,0.20752 -0.4558,-0.78065 -0.59121,-0.92286 z"
            id="path49"/>
    <path
            fill="#a3a3a3"
            opacity="1"
            stroke="none"
            d="m 612.6183,691.50755 c -26.61078,-24.2699 -46.20592,-53.60412 -58.57647,-86.80853 -9.69532,-26.02356 -18.66877,-52.69568 -19.26544,-81.0993 -0.0385,-1.82929 -0.3316,-3.56366 -0.306,-5.88221 3.10838,-1.70953 6.80357,-3.07607 10.29613,-4.18441 1.97789,12.72431 2.51338,25.55691 5.10414,37.95901 5.95259,28.49463 14.74238,56.15528 28.85132,81.78528 9.71357,17.64545 20.23145,34.83136 36.67212,47.31183 2.07568,1.57562 5.09136,2.75079 7.66156,4.31744 -3.01478,2.3764 -6.81696,4.5105 -10.43737,6.60089 z"
            id="path13"/>
    <path
            fill="#171400"
            opacity="1"
            stroke="none"
            d="m 766.71352,705.66887 c 1.069,-0.28863 2.0876,-0.21863 3.3311,0.45837 1.8732,14.4433 5.4331,27.69806 12.38841,39.87964 4.9715,8.70752 11.9538,15.37232 21.7545,17.89722 7.0063,1.80511 14.35629,2.32977 21.5768,3.23437 6.678,0.83667 11.9817,-1.83312 14.8821,-7.78375 5.703,-11.70111 7.2116,-23.97973 1.4967,-36.0329 -3.68441,-7.77032 -8.6569,-14.9284 -13.0284,-22.37475 -8.3764,-14.26868 -19.4515,-23.38367 -37.3702,-21.19385 -0.17821,-0.68774 -0.59831,-1.83215 -0.77051,-2.79174 6.6433,-2.93256 13.31041,-1.85187 19.5488,0.97955 11.28151,5.12024 18.64931,14.41827 24.76321,24.60925 4.2525,7.08795 7.6951,14.7287 10.8565,22.38788 4.5422,11.00433 3.7835,22.40417 -0.6762,33.08618 -1.8127,4.34204 -6.7337,7.50835 -10.5053,11.29338 -7.46611,0.24842 -14.50591,0.29201 -22.0518,0.4734 -2.7824,-0.64343 -5.1356,-1.46386 -7.54851,-2.02972 -14.4027,-3.37775 -23.10079,-13.1247 -28.9706,-25.96429 -5.2015,-11.37793 -9.4466,-23.04151 -9.6766,-36.12824 z"
            id="path14"/>
    <path
            fill="#f1d200"
            opacity="1"
            stroke="none"
            d="m 762.30693,643.61369 c -3.53391,-2.58069 -7.52761,-5.5841 -11.0025,-8.24182 -6.04018,-4.61969 -11.93515,-9.43341 -18.05916,-13.93707 -2.09785,-1.54278 -4.99993,-2.44095 -7.59784,-3.87436 -0.18274,-0.52881 -0.15279,-0.79468 -0.027,-1.45801 8.49261,2.59601 17.29684,5.28396 26.01509,8.88125 3.6518,6.33502 7.3274,12.89875 10.67141,18.63001 z"
            id="path15"/>

    <path
            fill="#f90200"
            opacity="1"
            stroke="none"
            d="m 914.89392,786.68027 c -0.9641,-3.23314 -2.1819,-6.44176 -2.8724,-9.76012 -0.9717,-4.66937 -1.5525,-9.4201 -1.7114,-14.25543 3.9505,7.23932 6.1019,14.87463 4.8198,23.66995 -0.2638,0.4344 -0.2542,0.321 -0.236,0.3456 z"
            id="path17"/>
    <path
            fill="#f90200"
            opacity="1"
            stroke="none"
            d="m 891.01832,789.40667 c -0.41779,-8.63856 -0.659,-17.13886 -0.90699,-25.88013 3.43959,8.09472 4.5319,16.67401 2.8052,25.70613 -0.5568,0.4836 -1.1958,0.2397 -1.89821,0.174 z"
            id="path18"/>
    <path
            fill="#f90200"
            opacity="1"
            stroke="none"
            d="m 761.27772,788.26737 c -0.15169,-3.55034 -0.6076,-7.10942 -0.45689,-10.64251 0.22159,-5.19348 0.87629,-10.36853 1.34659,-15.55139 0.6028,0.0512 1.2057,0.10248 1.8086,0.15369 -0.7744,8.44202 -1.5489,16.88409 -2.5602,25.68221 -0.073,0.4576 -0.1709,0.361 -0.1381,0.358 z"
            id="path19"/>
    <path
            fill="#f90200"
            opacity="1"
            stroke="none"
            d="m 714.61111,782.26486 c -0.12561,-8.5523 2.82227,-16.23393 7.01177,-24.16832 -1.92712,8.37671 -3.84317,16.87546 -5.84231,24.85678 -0.75606,-0.0547 -0.81002,-0.42088 -1.16946,-0.68846 z"
            id="path20"/>
    <path
            fill="#f90200"
            opacity="1"
            stroke="none"
            d="m 766.38583,405.65788 c 11.0645,12.33832 17.37579,26.58198 20.35499,42.39942 0.7714,4.09497 -0.6789,7.48114 -4.5087,9.05432 -13.0443,5.35834 -26.0478,10.88226 -39.36034,15.49585 -7.81481,2.70844 -14.49066,-3.40753 -15.41021,-11.63593 -2.09009,-18.70398 5.39837,-34.88562 13.15222,-50.8283 6.60283,-13.57636 13.85343,-14.52118 25.77204,-4.48536 z"
            id="path21"/>
    <path
            fill="#f90200"
            opacity="1"
            stroke="none"
            d="m 909.92952,396.03586 c 5.50331,2.28699 9.55761,5.74745 10.80331,11.43868 2.30649,10.53686 6.15789,21.01191 6.28369,31.69299 0.092,7.84405 -1.8646,16.06146 -3.9381,23.85052 -1.3819,5.19031 -10.6786,8.00891 -16.9398,5.76276 -11.8783,-4.26129 -23.695,-8.69818 -35.4903,-13.18585 -4.4223,-1.68262 -5.5596,-4.711 -3.6752,-9.17511 6.8506,-16.2298 16.33941,-30.80756 28.2654,-43.7157 3.7096,-4.0152 8.2105,-7.41609 14.691,-6.66829 z"
            id="path22"/>
    <path
            fill="#04b9f5"
            opacity="1"
            stroke="none"
            d="m 761.48852,643.01518 c -3.32389,-5.75543 -6.4811,-11.9497 -9.85189,-18.05169 4.22509,0.31274 8.73769,1.3385 12.91809,2.3244 17.3544,4.09283 36.59021,2.94918 54.5928,2.85336 -0.9699,1.21674 -3.1603,2.51563 -4.5755,3.25714 -6.2245,3.26099 -9.2086,9.78613 -7.4227,16.31214 1.7084,6.24298 8.6883,11.68237 14.7164,11.46844 6.4242,-0.22803 13.5941,-6.64032 14.5983,-13.0556 1.0896,-6.96094 -2.2969,-12.61396 -9.05469,-15.40473 -1.4049,-0.58026 -3.1719,-2.0305 -4.4633,-2.88554 19.4166,-3.21533 39.0753,-6.28619 58.8868,-9.50366 -0.2495,10.03912 -4.1914,18.82567 -10.4982,26.35069 -14.0342,16.74512 -33.2564,24.81827 -54.7827,24.40225 -12.9351,-0.25006 -25.7612,-3.02459 -37.1217,-10.87884 -6.7884,-3.32685 -15.0678,-14.14355 -17.3364,-16.57469 z"
            id="path23"/>


    <path
            fill="#f90200"
            opacity="1"
            stroke="none"
            d="m 737.09733,785.99067 c 0.26338,-7.48639 0.75707,-15.09981 1.27148,-22.21615 0.40753,0.0223 0.81512,0.0446 1.22264,0.0669 0,3.19891 0.30769,6.4353 -0.0758,9.58758 -0.50922,4.18616 -1.44376,8.79344 -2.41831,12.56167 z"
            id="path26"/>
    <path
            fill="#ffa801"
            opacity="1"
            stroke="none"
            d="m 822.96942,629.82658 c 1.5156,1.08093 3.3053,2.38758 4.7102,2.96784 6.75781,2.79077 9.95621,8.57485 8.72991,15.51301 -1.3199,7.46774 -8.4059,13.032 -15.3563,12.83904 -6.0296,-0.16739 -13.008,-5.22546 -14.7164,-11.46844 -1.78591,-6.52601 1.1982,-13.05115 7.4227,-16.31214 1.4152,-0.74151 3.0737,-2.08353 4.5314,-3.25479 1.5441,-0.0977 3.056,-0.33658 4.67849,-0.28452 z"
            id="path27"/>
    <path
            fill="#f1d200"
            opacity="1"
            stroke="none"
            d="m 791.74352,679.72722 c 17.9197,-2.64728 28.9948,6.95117 37.3712,21.21985 4.3715,7.44635 9.344,14.60443 13.0284,22.37475 5.7149,12.05317 4.2063,24.33179 -1.4967,36.0329 -2.9004,5.95063 -8.2041,8.62042 -14.8821,7.78375 -7.2205,-0.9046 -14.5705,-1.42926 -21.5768,-3.23437 -9.8007,-2.5249 -16.783,-9.1897 -21.7545,-17.89722 -6.9553,-12.18158 -10.7903,-25.6268 -12.4563,-39.86587 2.7373,-1.72485 5.8268,-2.74661 8.5113,-4.19876 8.6227,-4.6637 14.9804,-10.76422 13.2555,-22.21503 m 41.1897,76.81195 c 0,0 0.4333,0.0325 0.2905,0.73714 -0.3443,1.28748 -0.8388,2.81486 -1.3505,4.72868 6.5482,-3.28821 10.7693,-21.90765 7.035,-29.75323 -2.8752,1.64721 -5.5621,3.62054 -8.5648,4.76526 -2.2743,0.86694 -4.9492,0.79504 -7.4516,0.84283 -0.4224,0.008 -1.394,-2.06213 -1.2307,-2.21204 1.5193,-1.3944 3.0797,-2.91296 4.9217,-3.74902 3.1285,-1.42017 6.4696,-2.37201 9.7214,-3.52063 -8.9088,-0.0858 -17.4667,0.10065 -22.562,9.26502 -1.6144,2.90362 -5.2376,4.96649 -8.3445,6.68572 -3.0687,1.698 -6.6471,2.47504 -11.1107,4.04645 10.1759,0.61774 16.4665,-5.15021 23.3296,-9.4223 4.119,4.57916 4.149,5.7926 -0.7039,8.64301 -3.3878,1.98986 -7.1612,3.31903 -10.7414,4.98803 -1.2493,0.58234 -2.4363,1.2981 -5.0129,2.68616 5.038,3.60205 9.0602,6.47791 13.0824,9.35376 0.6178,-0.70471 1.2356,-1.40936 1.8534,-2.11407 -3.0001,-2.17743 -6.0003,-4.35486 -9.573,-6.94776 5.8749,-2.06958 10.4522,-3.68207 14.9329,-5.26056 3.8405,4.94971 -0.9503,6.78009 -3.1094,9.45654 0.292,0.4903 0.584,0.9806 0.8761,1.47089 4.4805,-1.65808 8.7566,-3.64337 13.5079,-5.01709 m -31.8207,-46.96698 c -2.8394,-2.47449 -2.7864,-4.67316 0.057,-8.11413 2.7516,-3.32978 5.4867,-6.6781 8.0801,-10.13019 0.6048,-0.80518 0.6067,-2.06317 0.8859,-3.11286 -0.4898,-0.33911 -0.9797,-0.67822 -1.4694,-1.01733 -7.0136,12.06103 -16.9286,20.5871 -29.7894,25.94995 1.5496,0.59723 3.0899,0.95606 4.3504,0.51532 2.015,-0.70465 3.8643,-1.90485 5.7472,-2.96008 2.3014,-1.2898 4.9663,-3.47394 7.0105,-0.49994 2.3971,3.48743 -1.2879,4.82269 -3.4081,6.44257 -1.4482,1.10644 -3.0453,2.02343 -4.603,2.98065 -2.1229,1.30475 -4.272,2.5672 -6.4098,3.84771 0.3534,0.6615 0.7069,1.32306 1.0604,1.98462 5.5362,-2.75653 11.0723,-5.513 16.6084,-8.26947 0.4413,0.62525 0.8825,1.25049 1.3238,1.87574 -1.8839,2.03295 -3.5318,4.38092 -5.714,6.01568 -2.5032,1.87519 -5.5424,3.01905 -8.2123,4.69757 -0.7701,0.48432 -1.0703,1.71649 -1.5859,2.60571 1.011,0.18628 2.0863,0.68433 3.0189,0.49134 1.7346,-0.35883 3.386,-1.1203 5.2888,-1.79053 0.5034,1.66064 0.9124,3.00995 1.2432,4.10138 -2.2196,1.61761 -4.101,2.98871 -5.9823,4.35974 1.6706,1.15265 3.1059,1.57855 4.0558,1.0799 4.3989,-2.30994 9.0013,-4.43872 12.8991,-7.45008 6.4374,-4.97351 12.344,-10.62945 18.5911,-15.85839 0.9913,-0.82978 2.593,-0.93006 3.9126,-1.36756 0.15361,1.03882 0.1406,2.13977 0.49971,3.10187 0.5298,1.41955 1.3243,2.74035 2.50759,5.10608 2.33131,-4.52246 3.08311,-7.72034 0.095,-10.36225 -2.76871,-2.44781 -5.9123,-1.73272 -8.66361,0.3772 -1.4427,1.10633 -2.64899,2.51752 -3.9901,3.76087 -3.5316,3.27453 -6.8984,6.76464 -10.6885,9.70831 -2.20849,1.71515 -4.61539,5.3338 -7.8315,1.95868 -0.3568,-0.37445 2.64641,-4.58069 4.6285,-6.43555 5.9239,-5.54327 12.1779,-10.73279 18.1451,-16.23169 1.109,-1.02185 1.4838,-2.84039 2.1975,-4.2912 -0.4416,-0.31463 -0.8831,-0.62933 -1.32459,-0.94397 -1.16901,1.16596 -2.32311,2.34711 -3.50971,3.49506 -3.5748,3.45917 -7.021,7.07587 -10.84079,10.24066 -0.99721,0.8263 -3.17281,0.23023 -4.8072,0.28729 0.2446,-1.47284 0.017,-3.30719 0.8178,-4.35431 3.0313,-3.96222 6.4655,-7.61346 9.5977,-11.5028 1.0546,-1.30939 1.6591,-2.98127 2.4692,-4.48755 -0.5444,-0.3819 -1.089,-0.76386 -1.6335,-1.14575 -4.6453,5.0216 -9.0114,10.02685 -14.3488,15.32531 z"
            id="path28"/>

    <path
            fill="#f1d200"
            opacity="1"
            stroke="none"
            d="m 762.80302,644.0089 c -1017.07069,-858.67853 -1017.07069,-858.67853 0,0 z"
            id="path30"/>


    <path
            fill="#f1d200"
            opacity="1"
            stroke="none"
            d="m 834.41082,739.1494 c 0.9615,-0.14471 1.6451,-0.0845 2.3288,-0.0242 -0.4686,3.84113 -0.9371,7.68225 -1.4057,11.52338 -0.5553,0.0982 -1.1106,0.19635 -1.6659,0.29455 -1.33729,-2.48004 -2.6746,-4.96008 -4.1555,-7.7066 1.6685,-1.40198 3.1445,-2.64203 4.8983,-4.0871 z"
            id="path48"/>

    <path
            fill="#ffa801"
            opacity="1"
            stroke="none"
            d="m 933.59063,673.0739 c -1.23791,-2.64319 -2.1988,-5.20697 -2.83211,-7.84924 -2.5042,-10.44757 -4.746,-20.96039 -7.3978,-31.36939 -2.00109,-7.85504 -4.45309,-15.59637 -6.7763,-23.36676 -0.27399,-0.91638 -1.1141,-1.69995 -1.61259,-3.01221 0.2174,-0.8504 0.5236,-1.22772 0.96329,-1.83233 0.43821,-0.60803 0.6335,-0.99262 0.83221,-1.34461 0,0.0325 -0.059,0.0504 -0.059,0.0504 13.45589,-15.0185 20.53379,-32.70697 22.093,-52.7146 0.5424,-6.96039 1.1921,-13.9129 1.6642,-20.87775 0.1205,-1.77643 0.34459,-3.95135 -0.4956,-5.31842 -4.0393,-6.57306 -2.684,-13.62707 -1.7449,-20.39783 1.7786,-12.82336 11.2814,-21.38848 25.4706,-23.60742 4.5642,-0.7138 9.2305,-0.99786 13.8553,-1.05523 10.5176,-0.13056 19.1662,5.9295 23.16057,15.77154 4.712,11.6098 5.9921,23.78528 6.3729,36.16986 0.8536,27.77991 -1.7384,55.07477 -11.28657,81.38263 -6.2593,17.24567 -16.5136,31.43158 -30.8561,43.23578 -9.3884,7.72669 -19.0169,13.81332 -31.3507,16.12716"
            id="path9"/>


    <path
            fill="#171400"
            opacity="1"
            stroke="none"
            d="m 801.25402,709.10662 c 4.99141,-5.1601 9.6366,-10.18177 14.2819,-15.20337 0.5445,0.38189 1.0891,0.76385 1.6335,1.14575 -0.8101,1.50628 -1.4146,3.17816 -2.4692,4.48755 -3.1322,3.88934 -6.5664,7.54058 -9.5977,11.5028 -0.8011,1.04712 -0.5732,2.88147 -0.8178,4.35431 1.6344,-0.0571 3.81,0.53901 4.8072,-0.28729 3.8198,-3.16479 7.266,-6.78149 10.8408,-10.24066 1.1866,-1.14795 2.3407,-2.3291 3.5097,-3.49506 0.4415,0.31464 0.883,0.62934 1.3246,0.94397 -0.7137,1.45081 -1.0885,3.26935 -2.1975,4.2912 -5.9672,5.4989 -12.2212,10.68842 -18.1451,16.23169 -1.9821,1.85486 -4.9853,6.0611 -4.6285,6.43555 3.2161,3.37512 5.623,-0.24353 7.8315,-1.95868 3.7901,-2.94367 7.1569,-6.43378 10.6885,-9.70831 1.3411,-1.24335 2.5474,-2.65454 3.9901,-3.76087 2.7513,-2.10992 5.8949,-2.82501 8.6636,-0.3772 2.988,2.64191 2.2362,5.83979 -0.095,10.36225 -1.1833,-2.36573 -1.9778,-3.68653 -2.5076,-5.10608 -0.3591,-0.9621 -0.3461,-2.06305 -0.4997,-3.10187 -1.3196,0.4375 -2.9213,0.53778 -3.9126,1.36756 -6.2471,5.22894 -12.1537,10.88488 -18.5911,15.85839 -3.8978,3.01136 -8.5002,5.14014 -12.8991,7.45008 -0.9499,0.49865 -2.3852,0.0728 -4.0558,-1.0799 1.8813,-1.37103 3.7627,-2.74213 5.9823,-4.35974 -0.3308,-1.09143 -0.7398,-2.44074 -1.2432,-4.10138 -1.9028,0.67023 -3.5542,1.4317 -5.2888,1.79053 -0.9326,0.19299 -2.0079,-0.30506 -3.0189,-0.49127 0.5156,-0.88929 0.8158,-2.12146 1.5859,-2.60578 2.6699,-1.67852 5.7091,-2.82238 8.2123,-4.69757 2.1822,-1.63476 3.8301,-3.98273 5.714,-6.01568 -0.4413,-0.62525 -0.8825,-1.25049 -1.3238,-1.87574 -5.5361,2.75647 -11.0722,5.51294 -16.6084,8.26947 -0.3535,-0.66156 -0.707,-1.32312 -1.0604,-1.98462 2.1378,-1.28051 4.2869,-2.54296 6.4098,-3.84771 1.5577,-0.95722 3.1548,-1.87421 4.603,-2.98065 2.1202,-1.61988 5.8052,-2.95514 3.4081,-6.44257 -2.0442,-2.974 -4.7091,-0.78986 -7.0105,0.49994 -1.8829,1.05523 -3.7322,2.25543 -5.7472,2.96008 -1.2605,0.44074 -2.8008,0.0819 -4.3504,-0.51532 12.8608,-5.36285 22.7758,-13.88892 29.7894,-25.94995 0.4897,0.33911 0.9796,0.67822 1.4694,1.01733 -0.2792,1.04969 -0.2811,2.30768 -0.8859,3.11286 -2.5934,3.45209 -5.3285,6.80041 -8.0801,10.13019 -2.8436,3.44097 -2.8966,5.63964 0.2888,7.97577 z"
            id="path46"/>
    <path
            fill="#171400"
            opacity="1"
            stroke="none"
            d="m 832.66252,756.25475 c -4.4806,1.65814 -8.9612,3.31622 -13.4417,4.9743 -0.2921,-0.49029 -0.5841,-0.98059 -0.8761,-1.47089 2.1591,-2.67645 6.9499,-4.50683 3.1094,-9.45654 -4.4807,1.57849 -9.058,3.19098 -14.9329,5.26056 3.5727,2.5929 6.5729,4.77033 9.57301,6.94776 -0.6178,0.70471 -1.2356,1.40936 -1.8534,2.11407 -4.02221,-2.87585 -8.0444,-5.75171 -13.0824,-9.35376 2.5766,-1.38806 3.7636,-2.10382 5.0129,-2.68616 3.5802,-1.669 7.35359,-2.99817 10.7414,-4.98803 4.8529,-2.85041 4.8229,-4.06385 0.7039,-8.64301 -6.8631,4.27209 -13.1537,10.04004 -23.3296,9.4223 4.4636,-1.57141 8.04199,-2.34845 11.1107,-4.04645 3.1069,-1.71923 6.7301,-3.7821 8.34449,-6.68572 5.0953,-9.16437 13.6532,-9.35083 22.562,-9.26502 -3.2518,1.14862 -6.5929,2.10046 -9.7214,3.52063 -1.842,0.83606 -3.40239,2.35462 -4.9217,3.74902 -0.1633,0.14991 0.8083,2.2201 1.2307,2.21204 2.5024,-0.0478 5.1773,0.0241 7.45161,-0.84283 3.0027,-1.14472 5.68959,-3.11805 8.5648,-4.76526 3.7343,7.84558 -0.4868,26.46502 -7.035,29.75323 0.5117,-1.91382 0.856,-3.20129 1.4443,-5.04864 0.2059,-0.81446 0.1676,-1.06897 0.1294,-1.32355 -0.2615,0.20728 -0.5229,0.41461 -0.7844,0.62195 m 1.5225,-16.89566 c -1.4759,1.24011 -3.004,2.47543 -4.6725,3.87741 1.4809,2.74652 2.8182,5.22656 4.1555,7.7066 0.5553,-0.0982 1.1106,-0.19635 1.6659,-0.29455 0.4686,-3.84113 0.9371,-7.68225 1.4057,-11.52338 -0.6837,-0.0602 -1.3152,-0.11575 -2.5546,0.23392 z"
            id="path47"/>
    <path
            fill="#f90200"
            opacity="1"
            stroke="none"
            d="m 955.81742,499.77791 c -0.21489,3.97278 -0.4172,7.4939 -0.6194,11.01507 -0.6899,-0.0469 -1.3795,-0.0937 -2.0694,-0.14062 0.3349,-5.45484 0.6696,-10.90961 1.0044,-16.36444 0.5656,-3.7e-4 1.1313,-7.3e-4 1.6968,-10e-4 0,1.67987 0,3.35974 -0.012,5.49115 z m 15.6687,11.04829 c -0.6899,-0.0469 -1.1031,0.18271 -1.793,0.13579 0.33491,-5.45484 -1.81809,-13.76583 -1.4833,-19.22066 0.5656,-3.7e-4 1.592,-0.185 2.1575,-0.18527 0,4.6243 1.1894,18.04066 1.1188,19.27014 z m 16.7484,-7.32805 c -0.6899,-0.0469 -1.5638,1.01193 -2.2537,0.96501 0.3349,-5.45484 -7.2541,-10.44893 -6.9193,-15.90376 0.5656,-3.7e-4 1.9605,-1.47491 2.526,-1.47518 0,1.67987 6.84921,12.89276 6.647,16.41393 z"
            id="path24"/>


</svg>
